<svg width="24" height="14" viewBox="0 0 24 14" fill="none" xmlns="http://www.w3.org/2000/svg">
<path d="M23.0613 3.06122L13.0613 13.0612C12.9219 13.2011 12.7563 13.312 12.574 13.3877C12.3917 13.4634 12.1962 13.5024 11.9988 13.5024C11.8013 13.5024 11.6059 13.4634 11.4235 13.3877C11.2412 13.312 11.0756 13.2011 10.9363 13.0612L0.936257 3.06122C0.654464 2.77943 0.496155 2.39724 0.496155 1.99872C0.496155 1.60021 0.654464 1.21802 0.936257 0.936225C1.21805 0.654432 1.60024 0.496123 1.99876 0.496123C2.39727 0.496123 2.77946 0.654432 3.06126 0.936225L12 9.87498L20.9388 0.934976C21.2205 0.653183 21.6027 0.494873 22.0013 0.494873C22.3998 0.494873 22.782 0.653183 23.0638 0.934976C23.3455 1.21677 23.5039 1.59896 23.5039 1.99748C23.5039 2.39599 23.3455 2.77818 23.0638 3.05998L23.0613 3.06122Z" fill="#343330"/>
</svg>
