<svg width="18" height="18" viewBox="0 0 18 18" fill="none" xmlns="http://www.w3.org/2000/svg">
<path d="M16.1824 4.95979L13.0402 1.81823C12.7765 1.55459 12.4188 1.40649 12.0459 1.40649C11.6731 1.40649 11.3154 1.55459 11.0517 1.81823L2.38079 10.4885C2.24976 10.6187 2.14587 10.7736 2.07514 10.9443C2.00442 11.1149 1.96825 11.2979 1.96876 11.4827V14.6249C1.96876 14.9979 2.11691 15.3556 2.38064 15.6193C2.64436 15.883 3.00204 16.0312 3.37501 16.0312H15.1875C15.4113 16.0312 15.6259 15.9423 15.7841 15.7841C15.9424 15.6258 16.0313 15.4112 16.0313 15.1874C16.0313 14.9637 15.9424 14.7491 15.7841 14.5908C15.6259 14.4326 15.4113 14.3437 15.1875 14.3437H8.78907L16.1824 6.94893C16.3131 6.81834 16.4167 6.66329 16.4874 6.49264C16.5581 6.32199 16.5945 6.13908 16.5945 5.95436C16.5945 5.76964 16.5581 5.58673 16.4874 5.41608C16.4167 5.24543 16.3131 5.09038 16.1824 4.95979ZM6.39844 14.3437H3.65626V11.6015L9.56251 5.69526L12.3047 8.43744L6.39844 14.3437ZM13.5 7.24213L10.7578 4.49994L12.0473 3.21041L14.7895 5.9526L13.5 7.24213Z" fill="#9B9EAB"/>
</svg>
