<svg width="14" height="24" viewBox="0 0 14 24" fill="none" xmlns="http://www.w3.org/2000/svg">
<path d="M13.0613 13.0612L3.06126 23.0612C2.77946 23.343 2.39727 23.5013 1.99876 23.5013C1.60024 23.5013 1.21805 23.343 0.936256 23.0612C0.654464 22.7794 0.496155 22.3972 0.496155 21.9987C0.496155 21.6002 0.654464 21.218 0.936256 20.9362L9.87501 11.9999L0.938757 3.0612C0.799227 2.92167 0.688546 2.75602 0.613033 2.57372C0.53752 2.39141 0.498654 2.19602 0.498654 1.9987C0.498654 1.80137 0.53752 1.60598 0.613033 1.42367C0.688546 1.24137 0.799227 1.07573 0.938757 0.936196C1.07829 0.796666 1.24393 0.685985 1.42624 0.610473C1.60854 0.53496 1.80393 0.496094 2.00126 0.496094C2.19858 0.496094 2.39397 0.53496 2.57628 0.610473C2.75858 0.685986 2.92423 0.796666 3.06376 0.936196L13.0638 10.9362C13.2034 11.0757 13.3142 11.2414 13.3897 11.4239C13.4652 11.6063 13.5039 11.8018 13.5037 11.9992C13.5035 12.1966 13.4643 12.3921 13.3883 12.5743C13.3124 12.7565 13.2013 12.922 13.0613 13.0612Z" fill="#343330"/>
</svg>
