<svg width="32" height="32" viewBox="0 0 32 32" fill="none" xmlns="http://www.w3.org/2000/svg">
<path d="M4.46284 9.50004C4.22299 9.50034 3.98665 9.44243 3.77409 9.33129C3.42113 9.14818 3.15532 8.83242 3.03507 8.4534C2.91483 8.07439 2.95 7.66314 3.13284 7.31004C4.29722 5.03419 6.04623 3.10916 8.20034 1.73254C8.36687 1.62067 8.55414 1.54334 8.75108 1.50513C8.94802 1.46691 9.15062 1.46859 9.3469 1.51006C9.54318 1.55153 9.72914 1.63196 9.89379 1.74657C10.0584 1.86118 10.1984 2.00766 10.3055 2.17733C10.4125 2.347 10.4844 2.53642 10.5169 2.73437C10.5495 2.93233 10.542 3.1348 10.4949 3.32981C10.4478 3.52481 10.3621 3.70839 10.2428 3.86967C10.1235 4.03096 9.97302 4.16668 9.80034 4.26879C8.09388 5.35679 6.71211 6.88451 5.80034 8.69129C5.67328 8.93601 5.48121 9.14096 5.24526 9.28364C5.0093 9.42632 4.73858 9.50119 4.46284 9.50004ZM28.8678 7.31004C27.7035 5.03419 25.9545 3.10916 23.8003 1.73254C23.6338 1.62067 23.4465 1.54334 23.2496 1.50513C23.0527 1.46691 22.8501 1.46859 22.6538 1.51006C22.4575 1.55153 22.2715 1.63196 22.1069 1.74657C21.9422 1.86118 21.8023 2.00766 21.6952 2.17733C21.5882 2.347 21.5163 2.53642 21.4837 2.73437C21.4512 2.93233 21.4587 3.1348 21.5058 3.32981C21.5529 3.52481 21.6386 3.70839 21.7579 3.86967C21.8772 4.03096 22.0277 4.16668 22.2003 4.26879C23.9068 5.35679 25.2886 6.88451 26.2003 8.69129C26.3274 8.93601 26.5195 9.14096 26.7554 9.28364C26.9914 9.42632 27.2621 9.50119 27.5378 9.50004C27.7777 9.50034 28.014 9.44243 28.2266 9.33129C28.5796 9.14818 28.8454 8.83242 28.9656 8.4534C29.0859 8.07439 29.0507 7.66314 28.8678 7.31004ZM27.4853 20.985C27.7675 21.3554 27.9406 21.7971 27.9852 22.2606C28.0298 22.724 27.9441 23.1907 27.7378 23.608C27.5314 24.0254 27.2126 24.3768 26.8173 24.6227C26.422 24.8687 25.9659 24.9994 25.5003 25H21.4078C21.1733 26.2629 20.5041 27.4038 19.5164 28.2249C18.5287 29.046 17.2848 29.4956 16.0003 29.4956C14.7159 29.4956 13.472 29.046 12.4843 28.2249C11.4966 27.4038 10.8274 26.2629 10.5928 25H6.50034C6.03446 25.0001 5.57784 24.8699 5.18199 24.6242C4.78614 24.3786 4.46681 24.0272 4.26002 23.6097C4.05323 23.1922 3.96721 22.7253 4.01166 22.2615C4.05611 21.7977 4.22927 21.3556 4.51159 20.985C5.40784 19.8188 6.47784 17.6575 6.49659 13.9925C6.49759 11.4725 7.49963 9.05604 9.28228 7.2748C11.0649 5.49356 13.4822 4.49342 16.0022 4.49442C18.5223 4.49541 20.9387 5.49745 22.72 7.2801C24.5012 9.06275 25.5013 11.48 25.5003 14C25.5191 17.6575 26.5891 19.8188 27.4853 20.985ZM18.2903 25H13.7103C13.9053 25.4451 14.2257 25.8237 14.6324 26.0896C15.0391 26.3555 15.5144 26.4971 16.0003 26.4971C16.4862 26.4971 16.9616 26.3555 17.3683 26.0896C17.775 25.8237 18.0954 25.4451 18.2903 25ZM24.5403 22C23.5203 20.375 22.5166 17.8038 22.4978 14.0075C22.5153 13.1434 22.3602 12.2845 22.0417 11.481C21.7232 10.6775 21.2476 9.94561 20.6428 9.32813C20.038 8.71066 19.3162 8.22 18.5195 7.88488C17.7228 7.54975 16.8672 7.37688 16.0029 7.37638C15.1386 7.37588 14.2829 7.54776 13.4858 7.88197C12.6887 8.21618 11.9663 8.706 11.3608 9.32278C10.7553 9.93955 10.2789 10.6709 9.95941 11.474C9.63997 12.2771 9.4839 13.1359 9.50034 14C9.48159 17.8025 8.47784 20.375 7.45784 22H24.5403Z" fill="#343330"/>
</svg>
