<svg width="238" height="238" viewBox="0 0 238 238" fill="none" xmlns="http://www.w3.org/2000/svg">
<path d="M238 119C238 184.722 184.722 238 119 238C53.2781 238 0 184.722 0 119C0 53.2781 53.2781 0 119 0C184.722 0 238 53.2781 238 119Z" fill="#D9D9D9"/>
<path d="M43.9383 211.345C50.3781 179.653 81.5349 155.615 119 155.615C156.465 155.615 187.622 179.653 194.062 211.345C173.585 228.01 147.459 238 119 238C90.5409 238 64.4152 228.01 43.9383 211.345Z" fill="white"/>
<path d="M155.615 102.981C155.615 123.624 138.881 140.359 118.237 140.359C97.5938 140.359 80.859 123.624 80.859 102.981C80.859 82.3374 97.5938 65.6026 118.237 65.6026C138.881 65.6026 155.615 82.3374 155.615 102.981Z" fill="white"/>
</svg>
