<svg width="32" height="32" viewBox="0 0 32 32" fill="none" xmlns="http://www.w3.org/2000/svg">
<path d="M23.0612 17.0612L13.0612 27.0612C12.7794 27.343 12.3972 27.5014 11.9987 27.5014C11.6002 27.5014 11.218 27.343 10.9362 27.0612C10.6544 26.7795 10.4961 26.3973 10.4961 25.9987C10.4961 25.6002 10.6544 25.218 10.9362 24.9362L19.8749 16L10.9387 7.06125C10.7992 6.92172 10.6885 6.75607 10.613 6.57377C10.5375 6.39147 10.4986 6.19607 10.4986 5.99875C10.4986 5.80142 10.5375 5.60603 10.613 5.42373C10.6885 5.24142 10.7992 5.07578 10.9387 4.93625C11.0782 4.79672 11.2439 4.68604 11.4262 4.61053C11.6085 4.53501 11.8039 4.49615 12.0012 4.49615C12.1985 4.49615 12.3939 4.53501 12.5762 4.61053C12.7585 4.68604 12.9242 4.79672 13.0637 4.93625L23.0637 14.9362C23.2034 15.0758 23.3141 15.2415 23.3896 15.4239C23.4651 15.6063 23.5039 15.8018 23.5036 15.9993C23.5034 16.1967 23.4642 16.3921 23.3883 16.5744C23.3123 16.7566 23.2012 16.9221 23.0612 17.0612Z" fill="#343330"/>
</svg>
