<svg width="32" height="32" viewBox="0 0 32 32" fill="none" xmlns="http://www.w3.org/2000/svg">
<path d="M29.2978 26.25C27.584 23.2421 24.9079 20.8984 21.7003 19.5962C23.2954 18.3999 24.4737 16.732 25.0682 14.8288C25.6627 12.9256 25.6433 10.8836 25.0128 8.99205C24.3823 7.10049 23.1726 5.45526 21.555 4.28942C19.9375 3.12357 17.9942 2.49622 16.0003 2.49622C14.0064 2.49622 12.0631 3.12357 10.4456 4.28942C8.82803 5.45526 7.61833 7.10049 6.98781 8.99205C6.35729 10.8836 6.33791 12.9256 6.93242 14.8288C7.52693 16.732 8.70519 18.3999 10.3003 19.5962C7.0927 20.8984 4.4166 23.2421 2.7028 26.25C2.59661 26.4207 2.52583 26.6111 2.49467 26.8097C2.46352 27.0084 2.47263 27.2113 2.52145 27.4063C2.57028 27.6014 2.65782 27.7847 2.77888 27.9452C2.89995 28.1058 3.05206 28.2403 3.22617 28.3409C3.40028 28.4415 3.59284 28.5061 3.7924 28.5308C3.99196 28.5555 4.19445 28.5398 4.38782 28.4847C4.5812 28.4295 4.76152 28.3361 4.91806 28.2099C5.0746 28.0836 5.20416 27.9273 5.29905 27.75C7.56405 23.835 11.564 21.5 16.0003 21.5C20.4366 21.5 24.4366 23.8362 26.7015 27.75C26.9072 28.0806 27.2334 28.3184 27.6111 28.4129C27.9888 28.5075 28.3885 28.4514 28.7257 28.2566C29.0629 28.0618 29.3111 27.7435 29.4178 27.3691C29.5246 26.9946 29.4816 26.5933 29.2978 26.25ZM9.5003 12C9.5003 10.7144 9.88152 9.45768 10.5957 8.38876C11.31 7.31984 12.3251 6.48672 13.5129 5.99475C14.7006 5.50278 16.0075 5.37406 17.2684 5.62486C18.5293 5.87567 19.6875 6.49473 20.5965 7.40377C21.5055 8.31281 22.1246 9.471 22.3754 10.7319C22.6262 11.9928 22.4975 13.2997 22.0055 14.4874C21.5135 15.6751 20.6804 16.6903 19.6115 17.4045C18.5426 18.1187 17.2859 18.5 16.0003 18.5C14.277 18.498 12.6249 17.8125 11.4063 16.594C10.1877 15.3754 9.50228 13.7233 9.5003 12Z" fill="#343330"/>
</svg>
